<svg width="45" height="45" viewBox="0 0 45 45" fill="none" xmlns="http://www.w3.org/2000/svg">
<path id="Subtract" fill-rule="evenodd" clip-rule="evenodd" d="M22.5 45C34.9264 45 45 34.9264 45 22.5C45 10.0736 34.9264 0 22.5 0C10.0736 0 0 10.0736 0 22.5C0 34.9264 10.0736 45 22.5 45ZM22.1125 18.1375C22.2314 18.2513 22.3716 18.3405 22.525 18.4C22.6746 18.4661 22.8364 18.5003 23 18.5003C23.1636 18.5003 23.3254 18.4661 23.475 18.4C23.6284 18.3405 23.7686 18.2513 23.8875 18.1375L26.75 15.325C26.992 15.083 27.128 14.7548 27.128 14.4125C27.128 14.0702 26.992 13.742 26.75 13.5C26.508 13.258 26.1798 13.122 25.8375 13.122C25.4952 13.122 25.167 13.258 24.925 13.5L24.25 14.2375V9.75C24.25 9.41848 24.1183 9.10054 23.8839 8.86612C23.6495 8.6317 23.3315 8.5 23 8.5C22.6685 8.5 22.3505 8.6317 22.1161 8.86612C21.8817 9.10054 21.75 9.41848 21.75 9.75V14.2375L21.075 13.5C20.833 13.258 20.5048 13.122 20.1625 13.122C19.8202 13.122 19.492 13.258 19.25 13.5C19.008 13.742 18.872 14.0702 18.872 14.4125C18.872 14.7548 19.008 15.083 19.25 15.325L22.1125 18.1375ZM31.75 24.75C31.75 24.5028 31.6767 24.2611 31.5393 24.0555C31.402 23.85 31.2068 23.6898 30.9784 23.5951C30.7499 23.5005 30.4986 23.4758 30.2561 23.524C30.0137 23.5723 29.7909 23.6913 29.6161 23.8661C29.4413 24.0409 29.3222 24.2637 29.274 24.5061C29.2258 24.7486 29.2505 24.9999 29.3451 25.2284C29.4398 25.4568 29.6 25.652 29.8055 25.7893C30.0111 25.9267 30.2528 26 30.5 26C30.8315 26 31.1495 25.8683 31.3839 25.6339C31.6183 25.3995 31.75 25.0815 31.75 24.75ZM33 16H29.25C28.9185 16 28.6005 16.1317 28.3661 16.3661C28.1317 16.6005 28 16.9185 28 17.25C28 17.5815 28.1317 17.8995 28.3661 18.1339C28.6005 18.3683 28.9185 18.5 29.25 18.5H33C33.3315 18.5 33.6495 18.6317 33.8839 18.8661C34.1183 19.1005 34.25 19.4185 34.25 19.75V29.75C34.25 30.0815 34.1183 30.3995 33.8839 30.6339C33.6495 30.8683 33.3315 31 33 31H13C12.6685 31 12.3505 30.8683 12.1161 30.6339C11.8817 30.3995 11.75 30.0815 11.75 29.75V19.75C11.75 19.4185 11.8817 19.1005 12.1161 18.8661C12.3505 18.6317 12.6685 18.5 13 18.5H16.75C17.0815 18.5 17.3995 18.3683 17.6339 18.1339C17.8683 17.8995 18 17.5815 18 17.25C18 16.9185 17.8683 16.6005 17.6339 16.3661C17.3995 16.1317 17.0815 16 16.75 16H13C12.0054 16 11.0516 16.3951 10.3483 17.0983C9.64509 17.8016 9.25 18.7554 9.25 19.75V29.75C9.25 30.7446 9.64509 31.6984 10.3483 32.4016C11.0516 33.1049 12.0054 33.5 13 33.5H33C33.9946 33.5 34.9484 33.1049 35.6516 32.4016C36.3549 31.6984 36.75 30.7446 36.75 29.75V19.75C36.75 18.7554 36.3549 17.8016 35.6516 17.0983C34.9484 16.3951 33.9946 16 33 16ZM14.25 24.75C14.25 24.9972 14.3233 25.2389 14.4607 25.4445C14.598 25.65 14.7932 25.8102 15.0216 25.9049C15.2501 25.9995 15.5014 26.0242 15.7439 25.976C15.9863 25.9278 16.2091 25.8087 16.3839 25.6339C16.5587 25.4591 16.6777 25.2363 16.726 24.9939C16.7742 24.7514 16.7495 24.5001 16.6549 24.2716C16.5602 24.0432 16.4 23.848 16.1945 23.7107C15.9889 23.5733 15.7472 23.5 15.5 23.5C15.1685 23.5 14.8505 23.6317 14.6161 23.8661C14.3817 24.1005 14.25 24.4185 14.25 24.75ZM22.1667 20.7917C21.8904 20.7917 21.6254 20.9014 21.4301 21.0968C21.2347 21.2921 21.125 21.5571 21.125 21.8333V24.125H20.7083C20.5426 24.125 20.3836 24.1908 20.2664 24.3081C20.1492 24.4253 20.0833 24.5842 20.0833 24.75C20.0833 24.9158 20.1492 25.0747 20.2664 25.1919C20.3836 25.3092 20.5426 25.375 20.7083 25.375H21.125V25.7917H20.7083C20.5426 25.7917 20.3836 25.8575 20.2664 25.9747C20.1492 26.0919 20.0833 26.2509 20.0833 26.4167C20.0833 26.5824 20.1492 26.7414 20.2664 26.8586C20.3836 26.9758 20.5426 27.0417 20.7083 27.0417H21.125V28.0833C21.125 28.2491 21.1908 28.4081 21.3081 28.5253C21.4253 28.6425 21.5842 28.7083 21.75 28.7083C21.9158 28.7083 22.0747 28.6425 22.1919 28.5253C22.3092 28.4081 22.375 28.2491 22.375 28.0833V27.0417H23.8333C23.9991 27.0417 24.1581 26.9758 24.2753 26.8586C24.3925 26.7414 24.4583 26.5824 24.4583 26.4167C24.4583 26.2509 24.3925 26.0919 24.2753 25.9747C24.1581 25.8575 23.9991 25.7917 23.8333 25.7917H22.375V25.375H23.8333C24.4411 25.375 25.024 25.1336 25.4538 24.7038C25.8836 24.274 26.125 23.6911 26.125 23.0833C26.125 22.4755 25.8836 21.8927 25.4538 21.4629C25.024 21.0331 24.4411 20.7917 23.8333 20.7917H22.1667ZM23.8333 24.125H22.375V22.0417H23.8333C24.1096 22.0417 24.3746 22.1514 24.5699 22.3468C24.7653 22.5421 24.875 22.8071 24.875 23.0833C24.875 23.3596 24.7653 23.6246 24.5699 23.8199C24.3746 24.0153 24.1096 24.125 23.8333 24.125Z" fill="url(#paint0_linear_5318_3939)"/>
<defs>
<linearGradient id="paint0_linear_5318_3939" x1="22.5" y1="0" x2="22.5" y2="45" gradientUnits="userSpaceOnUse">
<stop stop-color="#35C290"/>
<stop offset="1" stop-color="#2E9399"/>
</linearGradient>
</defs>
</svg>
