<svg width="24" height="19" viewBox="0 0 24 19" fill="none" xmlns="http://www.w3.org/2000/svg">
<g id="Group">
<path id="Vector" d="M3.07422 19H20.9258C21.9414 19 22.7064 18.7477 23.2207 18.2432C23.735 17.7386 23.9922 16.9818 23.9922 15.9727V5.74804C23.9922 4.74544 23.735 3.99186 23.2207 3.4873C22.7064 2.98275 21.9414 2.73047 20.9258 2.73047H18.1328C17.8724 2.73047 17.6641 2.71094 17.5078 2.67187C17.3515 2.63281 17.2132 2.56608 17.0928 2.47168C16.9723 2.37728 16.8372 2.24869 16.6875 2.08593L15.9062 1.20703C15.6653 0.940104 15.3984 0.735026 15.1055 0.591797C14.8125 0.448568 14.4153 0.376953 13.914 0.376953H10.0176C9.51629 0.376953 9.12077 0.448568 8.83105 0.591797C8.54134 0.735026 8.27279 0.940104 8.02539 1.20703L7.24414 2.08593C7.0293 2.32682 6.83073 2.49446 6.64843 2.58886C6.46615 2.68327 6.18295 2.73047 5.79883 2.73047H3.07422C2.05208 2.73047 1.28548 2.98275 0.774414 3.4873C0.263346 3.99186 0.0078125 4.74544 0.0078125 5.74804V15.9727C0.0078125 16.9818 0.263346 17.7386 0.774414 18.2432C1.28548 18.7477 2.05208 19 3.07422 19ZM3.09375 17.4278C2.61198 17.4278 2.23926 17.2992 1.97558 17.042C1.71192 16.7848 1.58008 16.4024 1.58008 15.8946V5.83593C1.58008 5.32813 1.71192 4.94564 1.97558 4.68847C2.23926 4.43131 2.61198 4.30273 3.09375 4.30273H6.18945C6.63216 4.30273 6.98861 4.25228 7.25879 4.15136C7.52897 4.05046 7.78776 3.86328 8.03515 3.58984L8.79687 2.73047C9.07682 2.41797 9.32422 2.20964 9.53906 2.10547C9.75391 2.00131 10.0762 1.94922 10.5058 1.94922H13.4258C13.8555 1.94922 14.1777 2.00131 14.3926 2.10547C14.6074 2.20964 14.8548 2.41797 15.1348 2.73047L15.8965 3.58984C16.1439 3.86328 16.4027 4.05046 16.6728 4.15136C16.943 4.25228 17.2995 4.30273 17.7422 4.30273H20.8965C21.3782 4.30273 21.7526 4.43131 22.0195 4.68847C22.2864 4.94564 22.4199 5.32813 22.4199 5.83593V15.8946C22.4199 16.4024 22.2864 16.7848 22.0195 17.042C21.7526 17.2992 21.3782 17.4278 20.8965 17.4278H3.09375ZM12 16.0215C12.7357 16.0215 13.4258 15.8848 14.0703 15.6114C14.7148 15.3379 15.2812 14.957 15.7695 14.4688C16.2578 13.9805 16.6386 13.4141 16.9121 12.7696C17.1856 12.125 17.3223 11.4284 17.3223 10.6797C17.3223 9.69009 17.0847 8.79167 16.6094 7.98437C16.1341 7.17708 15.4928 6.5358 14.6855 6.06054C13.8782 5.58528 12.9831 5.34765 12 5.34765C11.2578 5.34765 10.5644 5.48437 9.91992 5.75781C9.27539 6.03125 8.71061 6.41211 8.22558 6.90039C7.74056 7.38867 7.3597 7.95508 7.08301 8.59961C6.80632 9.24414 6.66797 9.93749 6.66797 10.6797C6.66797 11.4284 6.80632 12.125 7.08301 12.7696C7.3597 13.4141 7.74056 13.9805 8.22558 14.4688C8.71061 14.957 9.27539 15.3379 9.91992 15.6114C10.5644 15.8848 11.2578 16.0215 12 16.0215ZM12 14.5372C11.2903 14.5372 10.6442 14.3646 10.0615 14.0196C9.47884 13.6745 9.01335 13.2106 8.66504 12.628C8.31674 12.0453 8.14258 11.3959 8.14258 10.6797C8.14258 9.97004 8.31674 9.32389 8.66504 8.74121C9.01335 8.15853 9.47884 7.69303 10.0615 7.34472C10.6442 6.99642 11.2903 6.82226 12 6.82226C12.7096 6.82226 13.3558 6.99642 13.9385 7.34472C14.5212 7.69303 14.985 8.15853 15.3301 8.74121C15.6751 9.32389 15.8476 9.97004 15.8476 10.6797C15.8476 11.3959 15.6751 12.0453 15.3301 12.628C14.985 13.2106 14.5212 13.6745 13.9385 14.0196C13.3558 14.3646 12.7096 14.5372 12 14.5372ZM17.7226 7.08593C17.7226 7.43099 17.8431 7.7207 18.084 7.95507C18.3249 8.18945 18.6146 8.30339 18.9531 8.29687C19.2786 8.29687 19.5618 8.17969 19.8027 7.94531C20.0436 7.71094 20.164 7.42448 20.164 7.08593C20.164 6.76041 20.0436 6.47721 19.8027 6.23633C19.5618 5.99545 19.2786 5.875 18.9531 5.875C18.6146 5.875 18.3249 5.99545 18.084 6.23633C17.8431 6.47721 17.7226 6.76041 17.7226 7.08593Z" fill="#B5B5B5"/>
</g>
</svg>
