<svg width="64" height="64" viewBox="0 0 64 64" fill="none" xmlns="http://www.w3.org/2000/svg">
<g id="Group 3024">
<path id="Subtract" fill-rule="evenodd" clip-rule="evenodd" d="M32 64C14.3269 64 0 49.6731 0 32C0 14.3269 14.3269 0 32 0C49.6731 0 64 14.3269 64 32C64 49.6731 49.6731 64 32 64ZM21.5 18C20.5717 18 19.6815 18.3687 19.0251 19.0251C18.3687 19.6815 18 20.5717 18 21.5V42.5C18 43.4283 18.3687 44.3185 19.0251 44.9749C19.6815 45.6312 20.5717 46 21.5 46H42.5C43.4283 46 44.3185 45.6312 44.9749 44.9749C45.6312 44.3185 46 43.4283 46 42.5V21.5C46 20.5717 45.6312 19.6815 44.9749 19.0251C44.3185 18.3687 43.4283 18 42.5 18H21.5ZM16.5503 16.5503C17.863 15.2375 19.6435 14.5 21.5 14.5H42.5C44.3565 14.5 46.137 15.2375 47.4497 16.5503C48.7625 17.863 49.5 19.6435 49.5 21.5V42.5C49.5 44.3565 48.7625 46.137 47.4497 47.4497C46.137 48.7625 44.3565 49.5 42.5 49.5H21.5C19.6435 49.5 17.863 48.7625 16.5503 47.4497C15.2375 46.137 14.5 44.3565 14.5 42.5V21.5C14.5 19.6435 15.2375 17.863 16.5503 16.5503ZM32 21.5C30.6076 21.5 29.2723 22.0531 28.2877 23.0377C27.3031 24.0223 26.75 25.3576 26.75 26.75V37.25C26.75 38.6424 27.3031 39.9777 28.2877 40.9623C29.2723 41.9469 30.6076 42.5 32 42.5H33.75C35.1424 42.5 36.4777 41.9469 37.4623 40.9623C38.4469 39.9777 39 38.6424 39 37.25V32C39 30.6076 38.4469 29.2723 37.4623 28.2877C36.4777 27.3031 35.1424 26.75 33.75 26.75H30.25C30.25 26.2859 30.4344 25.8408 30.7626 25.5126C31.0908 25.1844 31.5359 25 32 25H37.25C38.2165 25 39 24.2165 39 23.25C39 22.2835 38.2165 21.5 37.25 21.5H32ZM30.25 37.25V30.25H33.75C34.2141 30.25 34.6592 30.4344 34.9874 30.7626C35.3156 31.0908 35.5 31.5359 35.5 32V37.25C35.5 37.7141 35.3156 38.1592 34.9874 38.4874C34.6592 38.8156 34.2141 39 33.75 39H32C31.5359 39 31.0908 38.8156 30.7626 38.4874C30.4344 38.1592 30.25 37.7141 30.25 37.25Z" fill="url(#paint0_linear_5144_10126)"/>
</g>
<defs>
<linearGradient id="paint0_linear_5144_10126" x1="32" y1="0" x2="32" y2="64" gradientUnits="userSpaceOnUse">
<stop stop-color="#35C290"/>
<stop offset="1" stop-color="#2E9399"/>
</linearGradient>
</defs>
</svg>
