<svg width="14" height="14" viewBox="0 0 14 14" fill="none" xmlns="http://www.w3.org/2000/svg">
<g id="Group">
<path id="Vector" d="M0.964806 13.1693C1.04727 13.1693 1.1319 13.1551 1.21871 13.1269C1.30552 13.0987 1.401 13.0543 1.50517 12.9935L4.81897 11.2097L8.41926 13.2279C8.65361 13.3581 8.89666 13.4232 9.14839 13.4232C9.3871 13.4232 9.60413 13.3668 9.79946 13.2539L13.2044 11.3203C13.3997 11.2118 13.5429 11.0783 13.6341 10.9199C13.7252 10.7615 13.7708 10.5738 13.7708 10.3568V1.58724C13.7708 1.34852 13.7068 1.16406 13.5787 1.03385C13.4507 0.903646 13.2695 0.838542 13.0351 0.838542C12.9526 0.838542 12.868 0.852648 12.7812 0.88086C12.6944 0.909071 12.5967 0.951389 12.4883 1.00781L9.03773 2.92839L5.50257 0.760417C5.30291 0.638889 5.08373 0.578125 4.84501 0.578125C4.60195 0.578125 4.37843 0.638889 4.17444 0.760417L0.789022 2.6875C0.59805 2.79601 0.45699 2.92947 0.365845 3.08789C0.274699 3.24631 0.229126 3.4362 0.229126 3.65755V12.4141C0.229126 12.6571 0.293145 12.8438 0.421183 12.974C0.549222 13.1042 0.730429 13.1693 0.964806 13.1693ZM4.39579 10.1745L1.45959 11.7891C1.41619 11.8107 1.38364 11.8216 1.36194 11.8216C1.30552 11.8216 1.27731 11.7869 1.27731 11.7175V3.91146C1.27731 3.83333 1.29358 3.76497 1.32613 3.70638C1.35868 3.64779 1.41402 3.59679 1.49215 3.55339L4.16142 1.99089C4.20482 1.96918 4.24497 1.94748 4.28186 1.92578C4.31875 1.90408 4.35673 1.88238 4.39579 1.86068V10.1745ZM5.44397 10.2787V1.9974C5.47869 2.01476 5.51341 2.0332 5.54814 2.05273C5.58286 2.07227 5.61758 2.09288 5.65231 2.11458L8.55593 3.88542V12.0235C8.50819 11.9974 8.46046 11.9725 8.41273 11.9486C8.36499 11.9247 8.31724 11.8998 8.26946 11.8737L5.44397 10.2787ZM9.60413 12.1407V3.82031L12.5403 2.21875C12.5837 2.19705 12.6141 2.1862 12.6315 2.1862C12.6619 2.1862 12.6847 2.19488 12.6999 2.21224C12.715 2.2296 12.7226 2.25564 12.7226 2.29037V10.0963C12.7226 10.1745 12.7063 10.2439 12.6738 10.3047C12.6413 10.3655 12.5859 10.4175 12.5078 10.4609L9.89713 11.9779C9.84935 12.0083 9.8005 12.0365 9.75059 12.0625C9.70068 12.0886 9.65186 12.1146 9.60413 12.1407Z" fill="#B5B5BC"/>
</g>
</svg>
