<svg width="64" height="64" viewBox="0 0 64 64" fill="none" xmlns="http://www.w3.org/2000/svg">
<path id="Subtract" fill-rule="evenodd" clip-rule="evenodd" d="M32 64C14.3269 64 0 49.6731 0 32C0 14.3269 14.3269 0 32 0C49.6731 0 64 14.3269 64 32C64 49.6731 49.6731 64 32 64ZM24.2751 17.2751C24.9315 16.6187 25.8217 16.25 26.75 16.25H37.25C38.1783 16.25 39.0685 16.6187 39.7249 17.2751C40.3812 17.9315 40.75 18.8217 40.75 19.75C40.75 20.2141 40.9344 20.6592 41.2626 20.9874C41.5908 21.3156 42.0359 21.5 42.5 21.5H44.25C45.6424 21.5 46.9777 22.0531 47.9623 23.0377C48.9469 24.0223 49.5 25.3576 49.5 26.75V42.5C49.5 43.8924 48.9469 45.2277 47.9623 46.2123C46.9777 47.1969 45.6424 47.75 44.25 47.75H19.75C18.3576 47.75 17.0223 47.1969 16.0377 46.2123C15.0531 45.2277 14.5 43.8924 14.5 42.5V26.75C14.5 25.3576 15.0531 24.0223 16.0377 23.0377C17.0223 22.0531 18.3576 21.5 19.75 21.5H21.5C21.9641 21.5 22.4092 21.3156 22.7374 20.9874C23.0656 20.6592 23.25 20.2141 23.25 19.75C23.25 18.8217 23.6187 17.9315 24.2751 17.2751ZM26.75 19.75C26.75 21.1424 26.1969 22.4777 25.2123 23.4623C24.2277 24.4469 22.8924 25 21.5 25H19.75C19.2859 25 18.8408 25.1844 18.5126 25.5126C18.1844 25.8408 18 26.2859 18 26.75V42.5C18 42.9641 18.1844 43.4092 18.5126 43.7374C18.8408 44.0656 19.2859 44.25 19.75 44.25H44.25C44.7141 44.25 45.1592 44.0656 45.4874 43.7374C45.8156 43.4092 46 42.9641 46 42.5V26.75C46 26.2859 45.8156 25.8408 45.4874 25.5126C45.1592 25.1844 44.7141 25 44.25 25H42.5C41.1076 25 39.7723 24.4469 38.7877 23.4623C37.8031 22.4777 37.25 21.1424 37.25 19.75H26.75ZM26.75 28.5C25.7835 28.5 25 29.2835 25 30.25C25 31.2165 25.7835 32 26.75 32H26.7675C27.734 32 28.5175 31.2165 28.5175 30.25C28.5175 29.2835 27.734 28.5 26.7675 28.5H26.75ZM37.25 28.5C36.2835 28.5 35.5 29.2835 35.5 30.25C35.5 31.2165 36.2835 32 37.25 32H37.2675C38.234 32 39.0175 31.2165 39.0175 30.25C39.0175 29.2835 38.234 28.5 37.2675 28.5H37.25ZM28.875 36.0253C28.1986 35.3349 27.0906 35.3236 26.4003 36C25.7099 36.6764 25.6986 37.7844 26.375 38.4747C27.1082 39.2231 27.9834 39.8176 28.9493 40.2235C29.9152 40.6293 30.9523 40.8384 32 40.8384C33.0477 40.8384 34.0848 40.6293 35.0507 40.2235C36.0166 39.8176 36.8918 39.2231 37.625 38.4747C38.3014 37.7844 38.2901 36.6764 37.5997 36C36.9094 35.3236 35.8014 35.3349 35.125 36.0253C34.7177 36.441 34.2314 36.7713 33.6948 36.9968C33.1582 37.2223 32.582 37.3384 32 37.3384C31.418 37.3384 30.8418 37.2223 30.3052 36.9968C29.7686 36.7713 29.2823 36.441 28.875 36.0253Z" fill="url(#paint0_linear_5144_10075)"/>
<defs>
<linearGradient id="paint0_linear_5144_10075" x1="32" y1="0" x2="32" y2="64" gradientUnits="userSpaceOnUse">
<stop stop-color="#35C290"/>
<stop offset="1" stop-color="#2E9399"/>
</linearGradient>
</defs>
</svg>
