<svg width="64" height="64" viewBox="0 0 64 64" fill="none" xmlns="http://www.w3.org/2000/svg">
<g id="Group 3024">
<path id="Subtract" fill-rule="evenodd" clip-rule="evenodd" d="M32 64C14.3269 64 0 49.6731 0 32C0 14.3269 14.3269 0 32 0C49.6731 0 64 14.3269 64 32C64 49.6731 49.6731 64 32 64ZM20.875 20V47.5H43.125V20H39.2345C39.1115 20.9866 38.2699 21.75 37.25 21.75C36.2301 21.75 35.3885 20.9866 35.2655 20H28.7345C28.6115 20.9866 27.7699 21.75 26.75 21.75C25.7301 21.75 24.8885 20.9866 24.7655 20H20.875ZM24.75 16H20.625C18.5539 16 16.875 17.6789 16.875 19.75V47.75C16.875 49.8211 18.5539 51.5 20.625 51.5H43.375C45.4461 51.5 47.125 49.8211 47.125 47.75V19.75C47.125 17.6789 45.4461 16 43.375 16H39.25V14.5C39.25 13.3954 38.3546 12.5 37.25 12.5C36.1454 12.5 35.25 13.3954 35.25 14.5V16H28.75V14.5C28.75 13.3954 27.8546 12.5 26.75 12.5C25.6454 12.5 24.75 13.3954 24.75 14.5V16ZM25 25.625C23.8954 25.625 23 26.5204 23 27.625C23 28.7296 23.8954 29.625 25 29.625H39C40.1046 29.625 41 28.7296 41 27.625C41 26.5204 40.1046 25.625 39 25.625H25ZM25 32.625C23.8954 32.625 23 33.5204 23 34.625C23 35.7296 23.8954 36.625 25 36.625H35.5C36.6046 36.625 37.5 35.7296 37.5 34.625C37.5 33.5204 36.6046 32.625 35.5 32.625H25ZM25 39.625C23.8954 39.625 23 40.5204 23 41.625C23 42.7296 23.8954 43.625 25 43.625H32C33.1046 43.625 34 42.7296 34 41.625C34 40.5204 33.1046 39.625 32 39.625H25Z" fill="url(#paint0_linear_5144_10088)"/>
</g>
<defs>
<linearGradient id="paint0_linear_5144_10088" x1="32" y1="0" x2="32" y2="64" gradientUnits="userSpaceOnUse">
<stop stop-color="#35C290"/>
<stop offset="1" stop-color="#2E9399"/>
</linearGradient>
</defs>
</svg>
