<svg width="64" height="64" viewBox="0 0 64 64" fill="none" xmlns="http://www.w3.org/2000/svg">
<g id="Group 3024">
<path id="Subtract" fill-rule="evenodd" clip-rule="evenodd" d="M0 32C0 49.6731 14.3269 64 32 64C49.6731 64 64 49.6731 64 32C64 14.3269 49.6731 0 32 0C14.3269 0 0 14.3269 0 32ZM46.0273 32C46.0273 32.4453 46.1894 32.8754 46.4833 33.21L48.9583 35.85C49.2169 36.1384 49.3775 36.5014 49.417 36.8867C49.4565 37.2721 49.373 37.6601 49.1783 37.995L45.5117 44.3383C45.319 44.6729 45.0256 44.9381 44.6734 45.0961C44.3211 45.2541 43.928 45.2969 43.55 45.2183L40.1033 44.5217C39.6648 44.431 39.2082 44.5041 38.8198 44.727C38.4314 44.9499 38.138 45.3073 37.995 45.7317L36.8767 49.0867C36.7537 49.4508 36.5194 49.7671 36.2068 49.9908C35.8943 50.2145 35.5193 50.3343 35.135 50.3333H27.8017C27.4019 50.3542 27.0062 50.2436 26.6752 50.0185C26.3442 49.7934 26.0959 49.4661 25.9683 49.0867L24.85 45.7317C24.707 45.3073 24.4136 44.9499 24.0252 44.727C23.6368 44.5041 23.1802 44.431 22.7417 44.5217L19.295 45.2183C18.917 45.2969 18.5239 45.2541 18.1716 45.0961C17.8194 44.9381 17.526 44.6729 17.3333 44.3383L13.6667 37.995C13.4671 37.6638 13.3774 37.278 13.4103 36.8928C13.4433 36.5075 13.5972 36.1425 13.85 35.85L16.1783 33.21C16.4723 32.8754 16.6343 32.4453 16.6343 32C16.6343 31.5547 16.4723 31.1246 16.1783 30.79L13.85 28.15C13.5972 27.8575 13.4433 27.4925 13.4103 27.1072C13.3774 26.722 13.4671 26.3362 13.6667 26.005L17.3333 19.6617C17.518 19.3504 17.7906 19.1008 18.1168 18.9442C18.443 18.7876 18.8083 18.731 19.1667 18.7817L22.705 19.4783C23.1436 19.569 23.6001 19.4959 23.9885 19.273C24.3769 19.0501 24.6703 18.6927 24.8133 18.2683L25.84 14.9133C25.9676 14.5339 26.2158 14.2066 26.5469 13.9815C26.8779 13.7564 27.2735 13.6458 27.6733 13.6667H35.0067C35.391 13.6657 35.7659 13.7855 36.0785 14.0092C36.391 14.2329 36.6253 14.5492 36.7483 14.9133L37.8667 18.2683C38.0097 18.6927 38.303 19.0501 38.6915 19.273C39.0799 19.4959 39.5364 19.569 39.975 19.4783L43.4217 18.7817C43.7997 18.7031 44.1928 18.7459 44.545 18.9039C44.8973 19.0619 45.1907 19.3271 45.3833 19.6617L49.05 26.005C49.2446 26.3399 49.3282 26.7279 49.2887 27.1133C49.2492 27.4986 49.0886 27.8616 48.83 28.15L46.4833 30.79C46.1894 31.1246 46.0273 31.5547 46.0273 32ZM45.2183 37.3167L43.7517 35.6667C42.8599 34.6606 42.3674 33.3628 42.3674 32.0183C42.3674 30.6739 42.8599 29.3761 43.7517 28.37L45.2183 26.72L42.8717 22.65L40.7083 23.09C39.3879 23.3599 38.0144 23.1356 36.8484 22.4597C35.6825 21.7838 34.8053 20.7033 34.3833 19.4233L33.6867 17.3333H28.9933L28.2967 19.405C27.8747 20.685 26.9975 21.7654 25.8316 22.4414C24.6656 23.1173 23.2921 23.3416 21.9717 23.0717L19.8083 22.6317L17.4617 26.665L18.9283 28.315C19.8302 29.3234 20.3289 30.6288 20.3289 31.9817C20.3289 33.3345 19.8302 34.64 18.9283 35.6483L17.4617 37.2983L19.845 41.35L22.0083 40.91C23.3287 40.6401 24.7023 40.8644 25.8682 41.5403C27.0342 42.2162 27.9114 43.2967 28.3333 44.5767L28.9933 46.6667H33.6867L34.3833 44.6133C34.8053 43.3334 35.6825 42.2529 36.8484 41.577C38.0144 40.9011 39.3879 40.6768 40.7083 40.9467L42.8717 41.3867L45.2183 37.3167ZM27.2658 25.9026C28.4718 25.0968 29.8896 24.6667 31.34 24.6667C33.2849 24.6667 35.1502 25.4393 36.5254 26.8146C37.9007 28.1898 38.6733 30.0551 38.6733 32C38.6733 33.4504 38.2432 34.8682 37.4374 36.0742C36.6316 37.2801 35.4863 38.2201 34.1463 38.7751C32.8064 39.3302 31.3319 39.4754 29.9093 39.1924C28.4868 38.9095 27.1801 38.211 26.1545 37.1855C25.129 36.1599 24.4305 34.8532 24.1476 33.4307C23.8646 32.0081 24.0098 30.5336 24.5649 29.1937C25.1199 27.8537 26.0599 26.7084 27.2658 25.9026ZM29.3029 35.0487C29.9059 35.4516 30.6148 35.6667 31.34 35.6667C32.3125 35.6667 33.2451 35.2804 33.9327 34.5927C34.6204 33.9051 35.0067 32.9725 35.0067 32C35.0067 31.2748 34.7916 30.5659 34.3887 29.9629C33.9858 29.3599 33.4132 28.89 32.7432 28.6124C32.0732 28.3349 31.3359 28.2623 30.6247 28.4038C29.9134 28.5453 29.2601 28.8945 28.7473 29.4073C28.2345 29.9201 27.8853 30.5734 27.7438 31.2847C27.6023 31.9959 27.6749 32.7332 27.9524 33.4032C28.23 34.0732 28.6999 34.6458 29.3029 35.0487Z" fill="url(#paint0_linear_5144_10140)"/>
</g>
<defs>
<linearGradient id="paint0_linear_5144_10140" x1="32" y1="0" x2="32" y2="64" gradientUnits="userSpaceOnUse">
<stop stop-color="#35C290"/>
<stop offset="1" stop-color="#2E9399"/>
</linearGradient>
</defs>
</svg>
