<?xml version="1.0" encoding="UTF-8"?>
<!--Generator: Apple Native CoreSVG 232.5-->
<!DOCTYPE svg
PUBLIC "-//W3C//DTD SVG 1.1//EN"
       "http://www.w3.org/Graphics/SVG/1.1/DTD/svg11.dtd">
<svg version="1.1" xmlns="http://www.w3.org/2000/svg" xmlns:xlink="http://www.w3.org/1999/xlink" width="44.751" height="34.4385">
 <g>
  <rect height="34.4385" opacity="0" width="44.751" x="0" y="0"/>
  <path d="M1.3623 0C0.541992 0 0 0.541992 0 1.3623L0 33.0762C0 33.8965 0.541992 34.4385 1.3623 34.4385L43.0225 34.4385C43.8428 34.4385 44.3848 33.8965 44.3848 33.0762L44.3848 1.3623C44.3848 0.541992 43.8428 0 43.0225 0ZM3.10547 2.59277L41.2793 2.59277C41.6455 2.59277 41.7773 2.73926 41.7773 3.10547L41.7773 31.333C41.7773 31.6992 41.6455 31.8457 41.2793 31.8457L3.10547 31.8457C2.73926 31.8457 2.59277 31.6992 2.59277 31.333L2.59277 3.10547C2.59277 2.73926 2.73926 2.59277 3.10547 2.59277Z" fill="#ffffff" fill-opacity="0.85"/>
  <path d="M5.71289 4.7168C5.08301 4.7168 4.7168 5.08301 4.7168 5.69824L4.7168 28.7402C4.7168 29.3555 5.08301 29.7217 5.71289 29.7217L38.6719 29.7217C39.3018 29.7217 39.668 29.3555 39.668 28.7402L39.668 5.69824C39.668 5.08301 39.3018 4.7168 38.6719 4.7168ZM6.81152 6.41602L37.5732 6.41602C37.8369 6.41602 37.9688 6.54785 37.9688 6.81152L37.9688 27.627C37.9688 27.8906 37.8369 28.0225 37.5732 28.0225L6.81152 28.0225C6.54785 28.0225 6.41602 27.8906 6.41602 27.627L6.41602 6.81152C6.41602 6.54785 6.54785 6.41602 6.81152 6.41602ZM38.4668 25.4297L29.458 17.0508C28.7549 16.4062 28.0078 16.0986 27.1436 16.0986C26.2793 16.0986 25.5469 16.377 24.8438 17.0215L18.0176 23.1445L15.2051 20.5664C14.5752 19.9805 13.8867 19.6875 13.1543 19.6875C12.4512 19.6875 11.8506 19.9805 11.2207 20.5518L5.52246 25.752L5.52246 27.4365C5.52246 28.4912 6.12305 28.9746 7.0166 28.9746L36.9727 28.9746C37.8516 28.9746 38.4668 28.4912 38.4668 27.4365Z" fill="#ffffff" fill-opacity="0.85"/>
  <path d="M15.6006 17.0068C17.5342 17.0068 19.1309 15.3955 19.1309 13.4473C19.1309 11.499 17.5342 9.8877 15.6006 9.8877C13.6377 9.8877 12.0557 11.499 12.0557 13.4473C12.0557 15.3955 13.6377 17.0068 15.6006 17.0068Z" fill="#ffffff" fill-opacity="0.85"/>
 </g>
</svg>
