<svg width="113" height="49" viewBox="0 0 113 49" fill="none" xmlns="http://www.w3.org/2000/svg">
<g id="Group 3219">
<path id="Vector" d="M98.7713 7.68409L98.3038 8.17782L98.7495 8.69131L103.034 13.6278L103.576 14.2526L104.145 13.6518L111.545 5.83577L111.988 5.36774L111.592 4.85926L109.785 2.53913L109.248 1.8506L108.648 2.48436L103.6 7.8164L101.668 5.77533L101.123 5.20008L100.578 5.77533L98.7713 7.68409Z" fill="#E82741" stroke="white" stroke-width="1.5"/>
<g id="Redi (Stroke)">
<path fill-rule="evenodd" clip-rule="evenodd" d="M23.4853 31.8415C23.9634 31.7239 24.4431 31.569 24.9173 31.3759C28.4764 29.9263 31.7304 26.3225 31.7304 20.2011C31.7304 12.9111 26.9302 7.56126 19.0803 7.56126H1.46053V46.7741H9.47979V32.8409H15.3531L22.7511 46.7741H31.9563L23.4853 31.8415ZM17.8944 25.4922C21.1134 25.4922 23.5417 23.4933 23.5417 20.2011C23.5417 16.9088 21.1134 14.91 17.8944 14.91H9.47979V25.4922H17.8944Z" fill="white"/>
<path fill-rule="evenodd" clip-rule="evenodd" d="M41.9733 36.4777C41.811 35.9883 41.6963 35.479 41.6305 34.9573H61.9046V33.3112C61.9046 24.0224 56.3702 17.6731 48.2379 17.6731C39.9363 17.6731 34.1195 24.3164 34.1195 32.5469C34.1195 41.6594 40.3881 47.4796 48.6897 47.4796C52.9253 47.4796 57.2173 46.1274 59.928 43.5406L56.7655 38.7199C56.4292 39.0587 56.0387 39.3715 55.6108 39.6557C53.8114 40.8511 51.351 41.5418 49.4804 41.5418C45.5232 41.5418 42.9269 39.3524 41.9733 36.4777ZM54.9583 29.9014C54.9278 29.4145 54.8442 28.899 54.6999 28.381C54.0429 26.0219 52.1276 23.6109 48.2379 23.6109C44.5581 23.6109 42.6071 25.9707 41.8464 28.381C41.6848 28.8929 41.5769 29.4071 41.5176 29.9014H54.9583Z" fill="white"/>
<path fill-rule="evenodd" clip-rule="evenodd" d="M85.8344 22.0236C85.385 21.4202 84.8959 20.8788 84.3739 20.3998C82.4036 18.5917 79.9647 17.6731 77.4198 17.6731C70.4736 17.6731 65.3345 23.3169 65.3345 32.6057C65.3345 42.0709 70.5301 47.4796 77.4198 47.4796C80.0067 47.4796 82.4175 46.5261 84.3739 44.7352C84.8947 44.2584 85.3833 43.7224 85.8344 43.1291V46.7741H93.063V7.56126H85.8344V22.0236ZM85.8344 27.5498C84.6485 25.6685 82.0507 24.3164 79.6223 24.3164C75.5562 24.3164 72.7325 27.6674 72.7325 32.6057C72.7325 37.4853 75.5562 40.8363 79.6223 40.8363C82.0507 40.8363 84.6485 39.4841 85.8344 37.6029V27.5498Z" fill="white"/>
<path d="M107.347 18.3786H100.175V46.7741H107.347V18.3786Z" fill="#E82741"/>
<path fill-rule="evenodd" clip-rule="evenodd" d="M98.7147 48.2945H108.808V16.8582H98.7147V48.2945ZM100.175 18.3786H107.347V46.7741H100.175V18.3786Z" fill="white"/>
</g>
</g>
</svg>
