<svg width="22" height="18" viewBox="0 0 22 18" fill="none" xmlns="http://www.w3.org/2000/svg">
<g id="arrowshape.turn.up.forward" clip-path="url(#clip0_3168_32687)">
<g id="Group">
<path id="Vector" d="M11.5137 17.9102C11.748 17.9102 11.971 17.8597 12.1826 17.7588C12.3942 17.6579 12.6172 17.4967 12.8516 17.2754L20.5566 10C20.7454 9.82422 20.8756 9.64518 20.9473 9.46289C21.0189 9.2806 21.0547 9.11133 21.0547 8.95508C21.0547 8.79232 21.0189 8.61979 20.9473 8.4375C20.8756 8.25521 20.7454 8.07617 20.5566 7.90039L12.8516 0.693359C12.5911 0.445964 12.3649 0.268555 12.1729 0.161133C11.9808 0.053711 11.7676 0 11.5332 0C11.1881 0 10.9066 0.117187 10.6885 0.351562C10.4704 0.585937 10.3613 0.865887 10.3613 1.19141V4.88281H10.0781C8.32681 4.88281 6.81478 5.15299 5.54199 5.69336C4.2692 6.23373 3.22428 7.01498 2.40723 8.03711C1.59017 9.05924 0.9847 10.2913 0.59082 11.7334C0.19694 13.1755 0 14.7982 0 16.6016C0 17.0247 0.102539 17.3486 0.307617 17.5732C0.512695 17.7979 0.745443 17.9102 1.00586 17.9102C1.21419 17.9102 1.42415 17.8679 1.63574 17.7832C1.84733 17.6985 2.03776 17.5 2.20703 17.1875C2.77344 16.1198 3.42773 15.2848 4.16992 14.6826C4.91211 14.0804 5.76823 13.6556 6.73828 13.4082C7.70833 13.1608 8.82161 13.0371 10.0781 13.0371H10.3613V16.7676C10.3613 17.0996 10.4704 17.373 10.6885 17.5879C10.9066 17.8028 11.1816 17.9102 11.5137 17.9102ZM12.0703 15.8105C11.9792 15.8105 11.9336 15.7617 11.9336 15.6641V11.8848C11.9336 11.6699 11.8262 11.5625 11.6113 11.5625H10.3027C7.98501 11.5625 6.09049 11.9336 4.61914 12.6758C3.14779 13.418 2.12565 14.4011 1.55273 15.625C1.53971 15.6575 1.52669 15.6819 1.51367 15.6982C1.50065 15.7145 1.48112 15.7227 1.45508 15.7227C1.40951 15.7227 1.38672 15.6869 1.38672 15.6152C1.42578 14.6973 1.54622 13.7907 1.74805 12.8955C1.94987 12.0003 2.26074 11.1588 2.68066 10.3711C3.10059 9.58333 3.64909 8.88834 4.32617 8.28613C5.00326 7.68392 5.83334 7.21191 6.81641 6.87012C7.79948 6.52832 8.96158 6.35742 10.3027 6.35742H11.6113C11.8262 6.35742 11.9336 6.25 11.9336 6.03516V2.1582C11.9336 2.06705 11.9824 2.02148 12.0801 2.02148C12.1061 2.02148 12.1338 2.02962 12.1631 2.0459C12.1924 2.06217 12.22 2.08008 12.2461 2.09961L19.1992 8.76953C19.2643 8.83464 19.2969 8.89649 19.2969 8.95508C19.2969 8.98112 19.2904 9.00879 19.2773 9.03809C19.2643 9.06738 19.2383 9.10156 19.1992 9.14062L12.2363 15.7227C12.1842 15.7812 12.1289 15.8105 12.0703 15.8105Z" fill="#B5B5BC"/>
</g>
</g>
<defs>
<clipPath id="clip0_3168_32687">
<rect width="21.0547" height="17.9199" fill="white"/>
</clipPath>
</defs>
</svg>
