<svg width="45" height="45" viewBox="0 0 45 45" fill="none" xmlns="http://www.w3.org/2000/svg">
<g id="arrow" clip-path="url(#clip0_4102_16034)">
<path id="Vector" d="M13.5 22.5C13.5 23.1375 13.716 23.6722 14.148 24.1042C14.5785 24.5347 15.1125 24.75 15.75 24.75L22.95 24.75L20.925 26.775C20.5125 27.1875 20.3063 27.7125 20.3063 28.35C20.3063 28.9875 20.5125 29.5125 20.925 29.925C21.3375 30.3375 21.8625 30.5437 22.5 30.5437C23.1375 30.5437 23.6625 30.3375 24.075 29.925L29.925 24.075C30.15 23.85 30.3097 23.6062 30.4042 23.3437C30.4972 23.0812 30.5437 22.8 30.5437 22.5C30.5437 22.2 30.4972 21.9187 30.4042 21.6562C30.3097 21.3937 30.15 21.15 29.925 20.925L24.075 15.075C23.6625 14.6625 23.1375 14.4562 22.5 14.4562C21.8625 14.4562 21.3375 14.6625 20.925 15.075C20.5125 15.4875 20.3063 16.0125 20.3063 16.65C20.3063 17.2875 20.5125 17.8125 20.925 18.225L22.95 20.25L15.75 20.25C15.1125 20.25 14.5785 20.466 14.148 20.898C13.716 21.3285 13.5 21.8625 13.5 22.5ZM2.83119e-06 22.5C2.96724e-06 19.3875 0.591003 16.4625 1.77301 13.725C2.95351 10.9875 4.55625 8.60625 6.58125 6.58125C8.60625 4.55625 10.9875 2.9535 13.725 1.773C16.4625 0.590999 19.3875 -1.11956e-06 22.5 -9.83506e-07C25.6125 -8.47454e-07 28.5375 0.590999 31.275 1.773C34.0125 2.9535 36.3937 4.55625 38.4187 6.58125C40.4437 8.60625 42.0473 10.9875 43.2292 13.725C44.4097 16.4625 45 19.3875 45 22.5C45 25.6125 44.4097 28.5375 43.2292 31.275C42.0472 34.0125 40.4437 36.3937 38.4187 38.4187C36.3937 40.4437 34.0125 42.0465 31.275 43.227C28.5375 44.409 25.6125 45 22.5 45C19.3875 45 16.4625 44.409 13.725 43.227C10.9875 42.0465 8.60625 40.4437 6.58125 38.4187C4.55625 36.3937 2.9535 34.0125 1.77301 31.275C0.591002 28.5375 2.69514e-06 25.6125 2.83119e-06 22.5Z" fill="#F1F1F1"/>
</g>
<defs>
<clipPath id="clip0_4102_16034">
<rect width="45" height="45" fill="white" transform="translate(45) rotate(90)"/>
</clipPath>
</defs>
</svg>
