<svg width="24" height="24" viewBox="0 0 24 24" fill="none" xmlns="http://www.w3.org/2000/svg">
<g id="mi:delete-alt">
<path id="Vector" d="M7 4C7 3.46957 7.21071 2.96086 7.58579 2.58579C7.96086 2.21071 8.46957 2 9 2H15C15.5304 2 16.0391 2.21071 16.4142 2.58579C16.7893 2.96086 17 3.46957 17 4V6H21C21.2652 6 21.5196 6.10536 21.7071 6.29289C21.8946 6.48043 22 6.73478 22 7C22 7.26522 21.8946 7.51957 21.7071 7.70711C21.5196 7.89464 21.2652 8 21 8H19.931L19.064 20.142C19.0281 20.6466 18.8023 21.1188 18.4321 21.4636C18.0619 21.8083 17.5749 22 17.069 22H6.93C6.42414 22 5.93707 21.8083 5.56688 21.4636C5.1967 21.1188 4.97092 20.6466 4.935 20.142L4.07 8H3C2.73478 8 2.48043 7.89464 2.29289 7.70711C2.10536 7.51957 2 7.26522 2 7C2 6.73478 2.10536 6.48043 2.29289 6.29289C2.48043 6.10536 2.73478 6 3 6H7V4ZM9 6H15V4H9V6ZM6.074 8L6.931 20H17.07L17.927 8H6.074Z" fill="#D8D8EC"/>
</g>
</svg>
