<svg width="24" height="24" viewBox="0 0 24 24" fill="none" xmlns="http://www.w3.org/2000/svg">
<g id="fluent:send-24-filled">
<path id="Vector" d="M13.3798 12.7124L5.26922 14.0636C5.17597 14.0791 5.08847 14.119 5.01551 14.1791C4.94254 14.2392 4.88669 14.3174 4.85357 14.4059L2.05708 21.8972C1.79003 22.5862 2.51042 23.243 3.17158 22.9114L22.5543 13.2216C22.6882 13.1545 22.8009 13.0514 22.8796 12.9239C22.9583 12.7965 23 12.6496 23 12.4998C23 12.3499 22.9583 12.2031 22.8796 12.0756C22.8009 11.9481 22.6882 11.845 22.5543 11.7779L3.17158 2.08813C2.51042 1.7576 1.79003 2.41435 2.05708 3.10232L4.85465 10.5936C4.88777 10.6821 4.94362 10.7603 5.01658 10.8204C5.08955 10.8805 5.17705 10.9204 5.2703 10.9359L13.3809 12.2871C13.4315 12.2952 13.4775 12.321 13.5108 12.36C13.544 12.399 13.5623 12.4485 13.5623 12.4998C13.5623 12.551 13.544 12.6005 13.5108 12.6395C13.4775 12.6785 13.4315 12.7043 13.3809 12.7124H13.3798Z" fill="url(#paint0_linear_5179_10101)"/>
</g>
<defs>
<linearGradient id="paint0_linear_5179_10101" x1="12.5" y1="2" x2="12.5" y2="23" gradientUnits="userSpaceOnUse">
<stop stop-color="#35C290"/>
<stop offset="1" stop-color="#2E9399"/>
</linearGradient>
</defs>
</svg>
