<svg width="52" height="24" viewBox="0 0 52 24" fill="none" xmlns="http://www.w3.org/2000/svg">
<path d="M32 19C32 19.5304 32.2107 20.0391 32.5858 20.4142C32.9609 20.7893 33.4696 21 34 21C34.5304 21 35.0391 20.7893 35.4142 20.4142C35.7893 20.0391 36 19.5304 36 19C36 18.4696 35.7893 17.9609 35.4142 17.5858C35.0391 17.2107 34.5304 17 34 17C33.4696 17 32.9609 17.2107 32.5858 17.5858C32.2107 17.9609 32 18.4696 32 19ZM43 19C43 19.5304 43.2107 20.0391 43.5858 20.4142C43.9609 20.7893 44.4696 21 45 21C45.5304 21 46.0391 20.7893 46.4142 20.4142C46.7893 20.0391 47 19.5304 47 19C47 18.4696 46.7893 17.9609 46.4142 17.5858C46.0391 17.2107 45.5304 17 45 17C44.4696 17 43.9609 17.2107 43.5858 17.5858C43.2107 17.9609 43 18.4696 43 19Z" stroke="#111111" stroke-width="2" stroke-linecap="round" stroke-linejoin="round"/>
<path d="M45 17H34V3H32" stroke="#111111" stroke-width="2" stroke-linecap="round" stroke-linejoin="round"/>
<path d="M34 5L48 6L47 13H34" stroke="#111111" stroke-width="2" stroke-linecap="round" stroke-linejoin="round"/>
</svg>
