<svg width="16" height="16" viewBox="0 0 16 16" fill="none" xmlns="http://www.w3.org/2000/svg">
<g id="material-symbols:chat-outline">
<path id="Vector" d="M4.00004 9.33399H9.33337V8.00065H4.00004V9.33399ZM4.00004 7.33399H12V6.00065H4.00004V7.33399ZM4.00004 5.33399H12V4.00065H4.00004V5.33399ZM1.33337 14.6673V2.66732C1.33337 2.30065 1.46404 1.98665 1.72537 1.72532C1.98671 1.46399 2.30049 1.33354 2.66671 1.33399H13.3334C13.7 1.33399 14.014 1.46465 14.2754 1.72599C14.5367 1.98732 14.6672 2.3011 14.6667 2.66732V10.6673C14.6667 11.034 14.536 11.348 14.2747 11.6093C14.0134 11.8707 13.6996 12.0011 13.3334 12.0007H4.00004L1.33337 14.6673ZM3.43337 10.6673H13.3334V2.66732H2.66671V11.4173L3.43337 10.6673Z" fill="#B5B5BC"/>
</g>
</svg>
