<svg width="64" height="64" viewBox="0 0 64 64" fill="none" xmlns="http://www.w3.org/2000/svg">
<g id="Group 3024">
<path id="Subtract" fill-rule="evenodd" clip-rule="evenodd" d="M0 32C0 49.6731 14.3269 64 32 64C49.6731 64 64 49.6731 64 32C64 14.3269 49.6731 0 32 0C14.3269 0 0 14.3269 0 32ZM26.0251 15.5251C25.3687 16.1815 25 17.0717 25 18V21.5H21.5C20.5717 21.5 19.6815 21.8687 19.0251 22.5251C18.3687 23.1815 18 24.0717 18 25V46C18 46.9283 18.3687 47.8185 19.0251 48.4749C19.6815 49.1312 20.5717 49.5 21.5 49.5H37.25C38.1783 49.5 39.0685 49.1312 39.7249 48.4749C40.3812 47.8185 40.75 46.9283 40.75 46V42.5H44.25C45.1783 42.5 46.0685 42.1312 46.7249 41.4749C47.3812 40.8185 47.75 39.9283 47.75 39V23.9745C47.7498 23.0463 47.3809 22.1562 46.7245 21.5L40.75 15.5255C40.0938 14.8691 39.2037 14.5002 38.2755 14.5H28.5C27.5717 14.5 26.6815 14.8687 26.0251 15.5251ZM28.5 39H44.25V26.75H38.125C37.4288 26.75 36.7611 26.4734 36.2688 25.9812C35.7766 25.4889 35.5 24.8212 35.5 24.125V18H28.5V39ZM39 23.25H43.5255L39 18.7245V23.25ZM21.5 25H25V39C25 39.9283 25.3687 40.8185 26.0251 41.4749C26.6815 42.1312 27.5717 42.5 28.5 42.5H37.25V46H21.5V25Z" fill="url(#paint0_linear_5144_10104)"/>
</g>
<defs>
<linearGradient id="paint0_linear_5144_10104" x1="32" y1="0" x2="32" y2="64" gradientUnits="userSpaceOnUse">
<stop stop-color="#35C290"/>
<stop offset="1" stop-color="#2E9399"/>
</linearGradient>
</defs>
</svg>
