<svg width="46" height="46" viewBox="0 0 46 46" fill="none" xmlns="http://www.w3.org/2000/svg">
<g id="la:shipping-fast">
<path id="Vector" d="M45.4351 24.1457L45.4398 24.1599L45.4454 24.1738L45.464 24.2202C45.4878 24.2794 45.5 24.3426 45.5 24.4064V34.9375C45.5 35.2136 45.2761 35.4375 45 35.4375H42.2369C41.5414 35.4375 40.9906 35.909 40.7566 36.4823C39.9748 38.3976 38.1147 39.75 35.9375 39.75C33.7603 39.75 31.9002 38.3976 31.1184 36.4823C30.8844 35.909 30.3336 35.4375 29.6381 35.4375H19.2369C18.5414 35.4375 17.9906 35.909 17.7566 36.4823C16.9748 38.3976 15.1147 39.75 12.9375 39.75C10.7603 39.75 8.90024 38.3976 8.11842 36.4823C7.8844 35.909 7.33364 35.4375 6.63809 35.4375H3.875C3.59886 35.4375 3.375 35.2136 3.375 34.9375V26.875C3.375 26.5989 3.59886 26.375 3.875 26.375H4.75C5.02614 26.375 5.25 26.5989 5.25 26.875V32.1256C5.25 32.9192 5.89332 33.5625 6.68691 33.5625C7.35309 33.5625 7.88169 33.1114 8.10171 32.5591C8.87344 30.622 10.7447 29.25 12.9375 29.25C15.1147 29.25 16.9748 30.6024 17.7566 32.5177C17.9906 33.091 18.5414 33.5625 19.2369 33.5625H26.3125C27.1409 33.5625 27.8125 32.8909 27.8125 32.0625V12.5C27.8125 11.6716 27.1409 11 26.3125 11H1C0.723858 11 0.5 10.7761 0.5 10.5V9.625C0.5 9.34886 0.723858 9.125 1 9.125H29.1875C29.4636 9.125 29.6875 9.34886 29.6875 9.625V13.375C29.6875 14.2034 30.3591 14.875 31.1875 14.875H41.9897C42.2078 14.875 42.4007 15.0164 42.4664 15.2244L42.5577 15.5132L42.5576 15.5132L42.5601 15.5207L45.4351 24.1457ZM43.5471 24.3034L43.0731 24.4624L43.5471 24.3034L41.3567 17.773C41.1517 17.1618 40.5792 16.75 39.9346 16.75H31.1875C30.3591 16.75 29.6875 17.4216 29.6875 18.25V32.9361C29.6875 33.282 29.968 33.5625 30.3139 33.5625C30.6019 33.5625 30.845 33.368 30.9189 33.1016C31.5345 30.8842 33.5447 29.25 35.9375 29.25C38.1303 29.25 40.0016 30.622 40.7733 32.5591C40.9933 33.1114 41.5219 33.5625 42.1881 33.5625C42.9817 33.5625 43.625 32.9192 43.625 32.1256V24.7804C43.625 24.6183 43.5987 24.4572 43.5471 24.3034ZM1.9375 15.375C1.9375 15.0989 2.16136 14.875 2.4375 14.875H13.375C13.6511 14.875 13.875 15.0989 13.875 15.375V16.25C13.875 16.5261 13.6511 16.75 13.375 16.75H2.4375C2.16136 16.75 1.9375 16.5261 1.9375 16.25V15.375ZM3.375 21.125C3.375 20.8489 3.59886 20.625 3.875 20.625H10.5C10.7761 20.625 11 20.8489 11 21.125V22C11 22.2761 10.7761 22.5 10.5 22.5H3.875C3.59886 22.5 3.375 22.2761 3.375 22V21.125ZM16.3125 34.5C16.3125 32.6182 14.8193 31.125 12.9375 31.125C11.0557 31.125 9.5625 32.6182 9.5625 34.5C9.5625 36.3818 11.0557 37.875 12.9375 37.875C14.8193 37.875 16.3125 36.3818 16.3125 34.5ZM39.3125 34.5C39.3125 32.6182 37.8193 31.125 35.9375 31.125C34.0557 31.125 32.5625 32.6182 32.5625 34.5C32.5625 36.3818 34.0557 37.875 35.9375 37.875C37.8193 37.875 39.3125 36.3818 39.3125 34.5Z" fill="#656565" stroke="#656565"/>
</g>
</svg>
