<svg width="64" height="64" viewBox="0 0 64 64" fill="none" xmlns="http://www.w3.org/2000/svg">
<g id="Group 3024">
<path id="Subtract" fill-rule="evenodd" clip-rule="evenodd" d="M0 32C0 49.6731 14.3269 64 32 64C49.6731 64 64 49.6731 64 32C64 14.3269 49.6731 0 32 0C14.3269 0 0 14.3269 0 32ZM24.125 21.8964V22.8125V22.8151H18.749C18.4239 22.8154 18.1104 22.9364 17.8694 23.1547C17.6283 23.3729 17.4769 23.6729 17.4444 23.9964L15.0819 47.6214C15.0635 47.8038 15.0836 47.988 15.1408 48.1622C15.198 48.3363 15.2911 48.4966 15.414 48.6326C15.5369 48.7686 15.6869 48.8774 15.8544 48.9519C16.0219 49.0264 16.2032 49.0649 16.3865 49.0651H47.6135C47.7968 49.0649 47.9781 49.0264 48.1456 48.9519C48.3131 48.8774 48.4631 48.7686 48.586 48.6326C48.7089 48.4966 48.802 48.3363 48.8592 48.1622C48.9164 47.988 48.9365 47.8038 48.9181 47.6214L46.5556 23.9964C46.5231 23.6729 46.3717 23.3729 46.1306 23.1547C45.8896 22.9364 45.5762 22.8154 45.251 22.8151H39.875V21.8964C39.875 17.3446 36.368 13.625 32 13.625C27.632 13.625 24.125 17.3446 24.125 21.8964ZM37.25 21.8964V22.8125H26.75V21.8964C26.75 18.7621 29.1178 16.25 32 16.25C34.8823 16.25 37.25 18.7621 37.25 21.8964ZM19.9381 25.4375H24.125V29.375C24.125 29.7231 24.2633 30.0569 24.5094 30.3031C24.7556 30.5492 25.0894 30.6875 25.4375 30.6875C25.7856 30.6875 26.1194 30.5492 26.3656 30.3031C26.6117 30.0569 26.75 29.7231 26.75 29.375V25.4375H37.25V29.375C37.25 29.7231 37.3883 30.0569 37.6344 30.3031C37.8806 30.5492 38.2144 30.6875 38.5625 30.6875C38.9106 30.6875 39.2444 30.5492 39.4906 30.3031C39.7367 30.0569 39.875 29.7231 39.875 29.375V25.4375H44.0592L46.1619 46.4375H17.8381L19.9381 25.4375Z" fill="url(#paint0_linear_5144_10114)"/>
</g>
<defs>
<linearGradient id="paint0_linear_5144_10114" x1="32" y1="0" x2="32" y2="64" gradientUnits="userSpaceOnUse">
<stop stop-color="#35C290"/>
<stop offset="1" stop-color="#2E9399"/>
</linearGradient>
</defs>
</svg>
