<svg width="24" height="24" viewBox="0 0 24 24" fill="none" xmlns="http://www.w3.org/2000/svg">
<g id="Favorite">
<path id="Vector" d="M10.6455 19.8891L10.6441 19.8878C7.92045 17.4523 5.74104 15.4984 4.23084 13.6764C2.73118 11.8672 2 10.3132 2 8.69482C2 6.06197 4.07886 4 6.775 4C8.30486 4 9.78588 4.70742 10.7457 5.81019L11.5 6.67687L12.2543 5.81019C13.2141 4.70742 14.6951 4 16.225 4C18.9211 4 21 6.06197 21 8.69482C21 10.3132 20.2688 11.8672 18.7692 13.6764C17.259 15.4984 15.0796 17.4523 12.3559 19.8878L12.3545 19.8891L11.5 20.6562L10.6455 19.8891Z" stroke="#B5B5BC" stroke-width="2"/>
</g>
</svg>
