<svg width="46" height="46" viewBox="0 0 46 46" fill="none" xmlns="http://www.w3.org/2000/svg">
<g id="Group">
<path id="Vector" d="M2.7675 7.44889L2.76755 7.44887L18.3453 1.21723L18.13 0.678964L18.3453 1.21723C20.4648 0.369325 22.8293 0.369325 24.9488 1.21723L25.1647 0.677511L24.9488 1.21723L40.5266 7.44887L40.5266 7.44889C41.1721 7.70703 41.7253 8.15267 42.115 8.72833C42.5047 9.30398 42.7129 9.98321 42.7128 10.6784V10.6785V20.5453C42.2191 20.1981 41.704 19.8787 41.1695 19.5897V10.8435V9.98491L40.3723 10.3038L22.7841 17.3391L22.4187 17.4852V17.8788V22.7562C21.8505 23.376 21.3346 24.0401 20.8754 24.7418V17.8788V17.4852L20.51 17.3391L2.92177 10.3038L2.12458 9.98491V10.8435V31.3676V31.3678C2.12467 31.754 2.24042 32.1315 2.45691 32.4514L2.93834 32.1256L2.45691 32.4514C2.6734 32.7713 2.98072 33.019 3.33929 33.1627L3.33966 33.1629L18.9201 39.3945L18.9203 39.3946C19.2003 39.5065 19.4868 39.601 19.7782 39.6776C20.055 40.2764 20.3697 40.8566 20.7204 41.4146C19.9122 41.3298 19.1123 41.134 18.3459 40.8264L18.3452 40.8261L2.7675 34.5972C2.12206 34.339 1.56879 33.8934 1.1791 33.3177C0.789408 32.7421 0.581185 32.0629 0.581301 31.3677V31.3676V10.6785V10.6784C0.581185 9.98321 0.789408 9.30398 1.1791 8.72833C1.56879 8.15268 2.12206 7.70703 2.7675 7.44889ZM24.374 2.65154L24.3739 2.65151C22.6587 1.96584 20.7495 1.95199 19.0265 2.60998H19.0213L18.9174 2.65155L15.2645 4.11273L13.915 4.65252L15.2645 5.19219L31.9165 11.8514L32.1323 11.9377L32.3481 11.8514L38.5148 9.38634L39.8648 8.84669L38.5149 8.30683L24.374 2.65154ZM11.8382 5.52692L11.7635 5.91472L11.6251 5.56849L4.77917 8.30684L3.42969 8.84663L4.77921 9.38631L21.4312 16.0455L21.647 16.1318L21.8628 16.0455L28.706 13.3099L30.0557 12.7703L28.7062 12.2304L12.0542 5.5685L11.9156 5.91476L11.8409 5.52692H11.8382ZM37.8663 27.7718L31.1176 34.5231L29.778 33.1835L29.7777 33.1832C29.4146 32.8206 28.9222 32.6171 28.409 32.6175C27.8958 32.6178 27.4038 32.822 27.0412 33.1852C26.6786 33.5483 26.4751 34.0406 26.4754 34.5538C26.4758 35.067 26.68 35.559 27.0431 35.9217L29.7487 38.6273L29.7488 38.6273C30.1115 38.9899 30.6034 39.1936 31.1163 39.1936C31.6292 39.1936 32.1211 38.9899 32.4838 38.6273L32.4839 38.6273L40.6012 30.5099C40.9644 30.1473 41.1686 29.6552 41.1689 29.1421C41.1693 28.6289 40.9658 28.1365 40.6032 27.7734C40.2405 27.4103 39.7485 27.2061 39.2353 27.2057C38.7221 27.2053 38.2298 27.4088 37.8667 27.7715L37.8663 27.7718ZM42.0226 41.3985C39.848 43.573 36.8988 44.7947 33.8235 44.7947C30.7483 44.7947 27.799 43.573 25.6245 41.3985C23.45 39.224 22.2284 36.2747 22.2284 33.1995C22.2284 30.1243 23.45 27.175 25.6245 25.0005C27.799 22.826 30.7483 21.6043 33.8235 21.6043C36.8988 21.6043 39.848 22.826 42.0226 25.0005C44.1971 27.175 45.4187 30.1243 45.4187 33.1995C45.4187 36.2747 44.1971 39.224 42.0226 41.3985Z" fill="#656565" stroke="#656565" stroke-width="1.1626"/>
</g>
</svg>
